<?xml version="1.0" encoding="UTF-8" standalone="no"?>
<!DOCTYPE svg PUBLIC "-//W3C//DTD SVG 1.1//EN"
 "http://www.w3.org/Graphics/SVG/1.1/DTD/svg11.dtd">
<!-- Generated by graphviz version 2.40.1 (20161225.0304)
 -->
<!-- Title: G Pages: 1 -->
<svg width="253pt" height="1643pt"
 viewBox="0.00 0.00 253.46 1643.00" xmlns="http://www.w3.org/2000/svg" xmlns:xlink="http://www.w3.org/1999/xlink">
<g id="graph0" class="graph" transform="scale(1 1) rotate(0) translate(4 1639)">
<title>G</title>
<polygon fill="#ffffff" stroke="transparent" points="-4,4 -4,-1639 249.4645,-1639 249.4645,4 -4,4"/>
<!-- A0 -->
<g id="node1" class="node">
<title>A0</title>
<ellipse fill="none" stroke="#000000" cx="105.7875" cy="-1624" rx="11" ry="11"/>
</g>
<!-- A1 -->
<g id="node2" class="node">
<title>A1</title>
<path fill="none" stroke="#000000" d="M148.4216,-1565C148.4216,-1565 63.1534,-1565 63.1534,-1565 57.1534,-1565 51.1534,-1559 51.1534,-1553 51.1534,-1553 51.1534,-1541 51.1534,-1541 51.1534,-1535 57.1534,-1529 63.1534,-1529 63.1534,-1529 148.4216,-1529 148.4216,-1529 154.4216,-1529 160.4216,-1535 160.4216,-1541 160.4216,-1541 160.4216,-1553 160.4216,-1553 160.4216,-1559 154.4216,-1565 148.4216,-1565"/>
<text text-anchor="middle" x="105.7875" y="-1544" font-family="Helvetica,sans-Serif" font-size="10.00" fill="#000000">A: super.onCreate</text>
</g>
<!-- A0&#45;&gt;A1 -->
<g id="edge1" class="edge">
<title>A0&#45;&gt;A1</title>
<path fill="none" stroke="#000000" d="M105.7875,-1612.9678C105.7875,-1603.124 105.7875,-1588.2813 105.7875,-1575.1664"/>
<polygon fill="#000000" stroke="#000000" points="105.7875,-1565.1474 110.2876,-1575.1473 105.7875,-1570.1474 105.7876,-1575.1474 105.7876,-1575.1474 105.7876,-1575.1474 105.7875,-1570.1474 101.2876,-1575.1474 105.7875,-1565.1474 105.7875,-1565.1474"/>
<text text-anchor="middle" x="134.6815" y="-1586" font-family="Helvetica,sans-Serif" font-size="10.00" fill="#000000">[activity启动]</text>
</g>
<!-- A2 -->
<g id="node3" class="node">
<title>A2</title>
<path fill="none" stroke="#000000" d="M149.0318,-1492C149.0318,-1492 62.5432,-1492 62.5432,-1492 56.5432,-1492 50.5432,-1486 50.5432,-1480 50.5432,-1480 50.5432,-1468 50.5432,-1468 50.5432,-1462 56.5432,-1456 62.5432,-1456 62.5432,-1456 149.0318,-1456 149.0318,-1456 155.0318,-1456 161.0318,-1462 161.0318,-1468 161.0318,-1468 161.0318,-1480 161.0318,-1480 161.0318,-1486 155.0318,-1492 149.0318,-1492"/>
<text text-anchor="middle" x="105.7875" y="-1471" font-family="Helvetica,sans-Serif" font-size="10.00" fill="#000000">A: setContentView</text>
</g>
<!-- A1&#45;&gt;A2 -->
<g id="edge2" class="edge">
<title>A1&#45;&gt;A2</title>
<path fill="none" stroke="#000000" d="M105.7875,-1528.9551C105.7875,-1520.8828 105.7875,-1511.1764 105.7875,-1502.1817"/>
<polygon fill="#000000" stroke="#000000" points="105.7875,-1492.0904 110.2876,-1502.0903 105.7875,-1497.0904 105.7876,-1502.0904 105.7876,-1502.0904 105.7876,-1502.0904 105.7875,-1497.0904 101.2876,-1502.0904 105.7875,-1492.0904 105.7875,-1492.0904"/>
</g>
<!-- A3 -->
<g id="node4" class="node">
<title>A3</title>
<path fill="none" stroke="#000000" d="M144.0328,-1127C144.0328,-1127 67.5422,-1127 67.5422,-1127 61.5422,-1127 55.5422,-1121 55.5422,-1115 55.5422,-1115 55.5422,-1103 55.5422,-1103 55.5422,-1097 61.5422,-1091 67.5422,-1091 67.5422,-1091 144.0328,-1091 144.0328,-1091 150.0328,-1091 156.0328,-1097 156.0328,-1103 156.0328,-1103 156.0328,-1115 156.0328,-1115 156.0328,-1121 150.0328,-1127 144.0328,-1127"/>
<text text-anchor="middle" x="105.7875" y="-1106" font-family="Helvetica,sans-Serif" font-size="10.00" fill="#000000">A: super.onStart</text>
</g>
<!-- A2&#45;&gt;A3 -->
<g id="edge3" class="edge">
<title>A2&#45;&gt;A3</title>
<path fill="none" stroke="#000000" d="M101.1136,-1455.8356C97.7442,-1441.1478 93.7875,-1419.8802 93.7875,-1401 93.7875,-1401 93.7875,-1401 93.7875,-1182 93.7875,-1167.1023 96.251,-1150.7182 98.9457,-1137.2531"/>
<polygon fill="#000000" stroke="#000000" points="101.1136,-1127.1644 103.4122,-1137.8866 100.0631,-1132.0528 99.0126,-1136.9412 99.0126,-1136.9412 99.0126,-1136.9412 100.0631,-1132.0528 94.6131,-1135.9957 101.1136,-1127.1644 101.1136,-1127.1644"/>
</g>
<!-- A5 -->
<g id="node6" class="node">
<title>A5</title>
<path fill="none" stroke="#000000" d="M194.4176,-1419C194.4176,-1419 139.1574,-1419 139.1574,-1419 133.1574,-1419 127.1574,-1413 127.1574,-1407 127.1574,-1407 127.1574,-1395 127.1574,-1395 127.1574,-1389 133.1574,-1383 139.1574,-1383 139.1574,-1383 194.4176,-1383 194.4176,-1383 200.4176,-1383 206.4176,-1389 206.4176,-1395 206.4176,-1395 206.4176,-1407 206.4176,-1407 206.4176,-1413 200.4176,-1419 194.4176,-1419"/>
<text text-anchor="middle" x="166.7875" y="-1398" font-family="Helvetica,sans-Serif" font-size="10.00" fill="#000000">F: onAttach</text>
</g>
<!-- A2&#45;&gt;A5 -->
<g id="edge5" class="edge">
<title>A2&#45;&gt;A5</title>
<path fill="none" stroke="#000000" d="M120.8662,-1455.9551C128.198,-1447.1809 137.1432,-1436.4759 145.1843,-1426.853"/>
<polygon fill="#000000" stroke="#000000" points="151.6709,-1419.0904 148.7118,-1429.6495 148.4648,-1422.9272 145.2587,-1426.764 145.2587,-1426.764 145.2587,-1426.764 148.4648,-1422.9272 141.8056,-1423.8785 151.6709,-1419.0904 151.6709,-1419.0904"/>
</g>
<!-- A4 -->
<g id="node5" class="node">
<title>A4</title>
<path fill="none" stroke="#000000" d="M107.143,-908C107.143,-908 14.432,-908 14.432,-908 8.432,-908 2.432,-902 2.432,-896 2.432,-896 2.432,-884 2.432,-884 2.432,-878 8.432,-872 14.432,-872 14.432,-872 107.143,-872 107.143,-872 113.143,-872 119.143,-878 119.143,-884 119.143,-884 119.143,-896 119.143,-896 119.143,-902 113.143,-908 107.143,-908"/>
<text text-anchor="middle" x="60.7875" y="-887" font-family="Helvetica,sans-Serif" font-size="10.00" fill="#000000">A: super.onResume</text>
</g>
<!-- A3&#45;&gt;A4 -->
<g id="edge4" class="edge">
<title>A3&#45;&gt;A4</title>
<path fill="none" stroke="#000000" d="M72.3994,-1090.9383C59.0445,-1081.7928 45.1132,-1069.3471 37.7875,-1054 16.5954,-1009.6031 34.0081,-951.2881 47.8866,-917.495"/>
<polygon fill="#000000" stroke="#000000" points="51.8527,-908.2415 52.0493,-919.2056 49.8829,-912.8372 47.9132,-917.4328 47.9132,-917.4328 47.9132,-917.4328 49.8829,-912.8372 43.7771,-915.6601 51.8527,-908.2415 51.8527,-908.2415"/>
</g>
<!-- A9 -->
<g id="node10" class="node">
<title>A9</title>
<path fill="none" stroke="#000000" d="M152.8005,-1054C152.8005,-1054 58.7745,-1054 58.7745,-1054 52.7745,-1054 46.7745,-1048 46.7745,-1042 46.7745,-1042 46.7745,-1030 46.7745,-1030 46.7745,-1024 52.7745,-1018 58.7745,-1018 58.7745,-1018 152.8005,-1018 152.8005,-1018 158.8005,-1018 164.8005,-1024 164.8005,-1030 164.8005,-1030 164.8005,-1042 164.8005,-1042 164.8005,-1048 158.8005,-1054 152.8005,-1054"/>
<text text-anchor="middle" x="105.7875" y="-1033" font-family="Helvetica,sans-Serif" font-size="10.00" fill="#000000">F: onActivityCreated</text>
</g>
<!-- A3&#45;&gt;A9 -->
<g id="edge10" class="edge">
<title>A3&#45;&gt;A9</title>
<path fill="none" stroke="#000000" d="M105.7875,-1090.9551C105.7875,-1082.8828 105.7875,-1073.1764 105.7875,-1064.1817"/>
<polygon fill="#000000" stroke="#000000" points="105.7875,-1054.0904 110.2876,-1064.0903 105.7875,-1059.0904 105.7876,-1064.0904 105.7876,-1064.0904 105.7876,-1064.0904 105.7875,-1059.0904 101.2876,-1064.0904 105.7875,-1054.0904 105.7875,-1054.0904"/>
</g>
<!-- A11 -->
<g id="node12" class="node">
<title>A11</title>
<polygon fill="none" stroke="#000000" points="90.7875,-835 72.7875,-817 90.7875,-799 108.7875,-817 90.7875,-835"/>
</g>
<!-- A4&#45;&gt;A11 -->
<g id="edge13" class="edge">
<title>A4&#45;&gt;A11</title>
<path fill="none" stroke="#000000" d="M68.2032,-871.9551C72.2531,-862.1003 77.304,-849.8099 81.6016,-839.3524"/>
<polygon fill="#000000" stroke="#000000" points="85.4338,-830.0273 85.7949,-840.9872 83.5332,-834.652 81.6326,-839.2767 81.6326,-839.2767 81.6326,-839.2767 83.5332,-834.652 77.4704,-837.5661 85.4338,-830.0273 85.4338,-830.0273"/>
</g>
<!-- A13 -->
<g id="node14" class="node">
<title>A13</title>
<polygon fill="#d3d3d3" stroke="#000000" stroke-width="4" points="59.7875,-673.5 59.7875,-677.5 95.7875,-677.5 95.7875,-673.5 59.7875,-673.5"/>
<text text-anchor="middle" x="77.4264" y="-675.2" font-family="Helvetica,sans-Serif" font-size="1.00" fill="#000000"> </text>
</g>
<!-- A4&#45;&gt;A13 -->
<g id="edge16" class="edge">
<title>A4&#45;&gt;A13</title>
<path fill="none" stroke="#000000" d="M57.2539,-871.7658C51.6952,-839.5571 42.8937,-770.7311 56.7875,-715 59.3925,-704.551 65.3361,-693.8332 70.2376,-686.2031"/>
<polygon fill="#000000" stroke="#000000" points="76.0145,-677.8243 74.043,-688.6115 73.1764,-681.9408 70.3382,-686.0572 70.3382,-686.0572 70.3382,-686.0572 73.1764,-681.9408 66.6334,-683.5029 76.0145,-677.8243 76.0145,-677.8243"/>
</g>
<!-- A6 -->
<g id="node7" class="node">
<title>A6</title>
<path fill="none" stroke="#000000" d="M199.0768,-1346C199.0768,-1346 142.4982,-1346 142.4982,-1346 136.4982,-1346 130.4982,-1340 130.4982,-1334 130.4982,-1334 130.4982,-1322 130.4982,-1322 130.4982,-1316 136.4982,-1310 142.4982,-1310 142.4982,-1310 199.0768,-1310 199.0768,-1310 205.0768,-1310 211.0768,-1316 211.0768,-1322 211.0768,-1322 211.0768,-1334 211.0768,-1334 211.0768,-1340 205.0768,-1346 199.0768,-1346"/>
<text text-anchor="middle" x="170.7875" y="-1325" font-family="Helvetica,sans-Serif" font-size="10.00" fill="#000000">F: onCreate</text>
</g>
<!-- A5&#45;&gt;A6 -->
<g id="edge6" class="edge">
<title>A5&#45;&gt;A6</title>
<path fill="none" stroke="#000000" d="M167.7763,-1382.9551C168.2186,-1374.8828 168.7504,-1365.1764 169.2433,-1356.1817"/>
<polygon fill="#000000" stroke="#000000" points="169.7962,-1346.0904 173.7423,-1356.3216 169.5226,-1351.0829 169.249,-1356.0754 169.249,-1356.0754 169.249,-1356.0754 169.5226,-1351.0829 164.7558,-1355.8291 169.7962,-1346.0904 169.7962,-1346.0904"/>
</g>
<!-- A7 -->
<g id="node8" class="node">
<title>A7</title>
<path fill="none" stroke="#000000" d="M213.2435,-1273C213.2435,-1273 134.3315,-1273 134.3315,-1273 128.3315,-1273 122.3315,-1267 122.3315,-1261 122.3315,-1261 122.3315,-1249 122.3315,-1249 122.3315,-1243 128.3315,-1237 134.3315,-1237 134.3315,-1237 213.2435,-1237 213.2435,-1237 219.2435,-1237 225.2435,-1243 225.2435,-1249 225.2435,-1249 225.2435,-1261 225.2435,-1261 225.2435,-1267 219.2435,-1273 213.2435,-1273"/>
<text text-anchor="middle" x="173.7875" y="-1252" font-family="Helvetica,sans-Serif" font-size="10.00" fill="#000000">F: onCreateView</text>
</g>
<!-- A6&#45;&gt;A7 -->
<g id="edge7" class="edge">
<title>A6&#45;&gt;A7</title>
<path fill="none" stroke="#000000" d="M171.5291,-1309.9551C171.8608,-1301.8828 172.2597,-1292.1764 172.6293,-1283.1817"/>
<polygon fill="#000000" stroke="#000000" points="173.0441,-1273.0904 177.1296,-1283.2667 172.8387,-1278.0861 172.6334,-1283.0819 172.6334,-1283.0819 172.6334,-1283.0819 172.8387,-1278.0861 168.1371,-1282.8971 173.0441,-1273.0904 173.0441,-1273.0904"/>
</g>
<!-- A8 -->
<g id="node9" class="node">
<title>A8</title>
<path fill="none" stroke="#000000" d="M217.8015,-1200C217.8015,-1200 133.7735,-1200 133.7735,-1200 127.7735,-1200 121.7735,-1194 121.7735,-1188 121.7735,-1188 121.7735,-1176 121.7735,-1176 121.7735,-1170 127.7735,-1164 133.7735,-1164 133.7735,-1164 217.8015,-1164 217.8015,-1164 223.8015,-1164 229.8015,-1170 229.8015,-1176 229.8015,-1176 229.8015,-1188 229.8015,-1188 229.8015,-1194 223.8015,-1200 217.8015,-1200"/>
<text text-anchor="middle" x="175.7875" y="-1179" font-family="Helvetica,sans-Serif" font-size="10.00" fill="#000000">F: onViewCreated</text>
</g>
<!-- A7&#45;&gt;A8 -->
<g id="edge8" class="edge">
<title>A7&#45;&gt;A8</title>
<path fill="none" stroke="#000000" d="M174.2819,-1236.9551C174.503,-1228.8828 174.769,-1219.1764 175.0154,-1210.1817"/>
<polygon fill="#000000" stroke="#000000" points="175.2919,-1200.0904 179.5162,-1210.2099 175.1549,-1205.0885 175.0179,-1210.0866 175.0179,-1210.0866 175.0179,-1210.0866 175.1549,-1205.0885 170.5196,-1209.9633 175.2919,-1200.0904 175.2919,-1200.0904"/>
</g>
<!-- A8&#45;&gt;A3 -->
<g id="edge9" class="edge">
<title>A8&#45;&gt;A3</title>
<path fill="none" stroke="#000000" d="M158.4841,-1163.9551C149.9864,-1155.0932 139.6,-1144.2616 130.3015,-1134.5646"/>
<polygon fill="#000000" stroke="#000000" points="123.1344,-1127.0904 133.3037,-1131.1937 126.595,-1130.6993 130.0557,-1134.3082 130.0557,-1134.3082 130.0557,-1134.3082 126.595,-1130.6993 126.8076,-1137.4228 123.1344,-1127.0904 123.1344,-1127.0904"/>
</g>
<!-- A10 -->
<g id="node11" class="node">
<title>A10</title>
<path fill="none" stroke="#000000" d="M112.6876,-981C112.6876,-981 64.8874,-981 64.8874,-981 58.8874,-981 52.8874,-975 52.8874,-969 52.8874,-969 52.8874,-957 52.8874,-957 52.8874,-951 58.8874,-945 64.8874,-945 64.8874,-945 112.6876,-945 112.6876,-945 118.6876,-945 124.6876,-951 124.6876,-957 124.6876,-957 124.6876,-969 124.6876,-969 124.6876,-975 118.6876,-981 112.6876,-981"/>
<text text-anchor="middle" x="88.7875" y="-960" font-family="Helvetica,sans-Serif" font-size="10.00" fill="#000000">F: onStart</text>
</g>
<!-- A9&#45;&gt;A10 -->
<g id="edge11" class="edge">
<title>A9&#45;&gt;A10</title>
<path fill="none" stroke="#000000" d="M101.5853,-1017.9551C99.685,-1009.7951 97.3958,-999.9652 95.2821,-990.8887"/>
<polygon fill="#000000" stroke="#000000" points="93.0003,-981.0904 99.6512,-989.8091 94.1344,-985.9601 95.2685,-990.8298 95.2685,-990.8298 95.2685,-990.8298 94.1344,-985.9601 90.8857,-991.8504 93.0003,-981.0904 93.0003,-981.0904"/>
</g>
<!-- A10&#45;&gt;A4 -->
<g id="edge12" class="edge">
<title>A10&#45;&gt;A4</title>
<path fill="none" stroke="#000000" d="M81.8661,-944.9551C78.7026,-936.7074 74.8848,-926.7536 71.3723,-917.5962"/>
<polygon fill="#000000" stroke="#000000" points="67.7263,-908.0904 75.5091,-915.8155 69.5169,-912.7587 71.3075,-917.4271 71.3075,-917.4271 71.3075,-917.4271 69.5169,-912.7587 67.106,-919.0387 67.7263,-908.0904 67.7263,-908.0904"/>
</g>
<!-- A12 -->
<g id="node13" class="node">
<title>A12</title>
<path fill="none" stroke="#000000" d="M141.7975,-751C141.7975,-751 77.7775,-751 77.7775,-751 71.7775,-751 65.7775,-745 65.7775,-739 65.7775,-739 65.7775,-727 65.7775,-727 65.7775,-721 71.7775,-715 77.7775,-715 77.7775,-715 141.7975,-715 141.7975,-715 147.7975,-715 153.7975,-721 153.7975,-727 153.7975,-727 153.7975,-739 153.7975,-739 153.7975,-745 147.7975,-751 141.7975,-751"/>
<text text-anchor="middle" x="109.7875" y="-730" font-family="Helvetica,sans-Serif" font-size="10.00" fill="#000000">F: onResume</text>
</g>
<!-- A11&#45;&gt;A12 -->
<g id="edge14" class="edge">
<title>A11&#45;&gt;A12</title>
<path fill="none" stroke="#000000" d="M94.1843,-801.9825C96.7531,-790.6259 100.3542,-774.7049 103.4498,-761.0194"/>
<polygon fill="#000000" stroke="#000000" points="105.6929,-751.1023 107.8758,-761.8488 104.5898,-755.9792 103.4867,-760.856 103.4867,-760.856 103.4867,-760.856 104.5898,-755.9792 99.0975,-759.8631 105.6929,-751.1023 105.6929,-751.1023"/>
<text text-anchor="middle" x="113.1785" y="-772" font-family="Helvetica,sans-Serif" font-size="10.00" fill="#000000">[之后]</text>
</g>
<!-- A12&#45;&gt;A13 -->
<g id="edge15" class="edge">
<title>A12&#45;&gt;A13:n</title>
<path fill="none" stroke="#000000" d="M93.0377,-714.95C87.2309,-707.2955 81.5561,-697.8149 79.0816,-687.7347"/>
<polygon fill="#000000" stroke="#000000" points="77.7875,-677.5 83.5064,-686.8565 78.4147,-682.4605 79.042,-687.421 79.042,-687.421 79.042,-687.421 78.4147,-682.4605 74.5775,-687.9855 77.7875,-677.5 77.7875,-677.5"/>
</g>
<!-- A14 -->
<g id="node15" class="node">
<title>A14</title>
<path fill="none" stroke="#000000" d="M119.7646,-625C119.7646,-625 35.8104,-625 35.8104,-625 29.8104,-625 23.8104,-619 23.8104,-613 23.8104,-613 23.8104,-601 23.8104,-601 23.8104,-595 29.8104,-589 35.8104,-589 35.8104,-589 119.7646,-589 119.7646,-589 125.7646,-589 131.7646,-595 131.7646,-601 131.7646,-601 131.7646,-613 131.7646,-613 131.7646,-619 125.7646,-625 119.7646,-625"/>
<text text-anchor="middle" x="77.7875" y="-604" font-family="Helvetica,sans-Serif" font-size="10.00" fill="#000000">A: super.onPause</text>
</g>
<!-- A13&#45;&gt;A14 -->
<g id="edge17" class="edge">
<title>A13&#45;&gt;A14</title>
<path fill="none" stroke="#000000" d="M77.7875,-673.2209C77.7875,-667.2228 77.7875,-650.4147 77.7875,-635.2342"/>
<polygon fill="#000000" stroke="#000000" points="77.7875,-625.1376 82.2876,-635.1376 77.7875,-630.1376 77.7876,-635.1376 77.7876,-635.1376 77.7876,-635.1376 77.7875,-630.1376 73.2876,-635.1377 77.7875,-625.1376 77.7875,-625.1376"/>
<text text-anchor="middle" x="101.6855" y="-646" font-family="Helvetica,sans-Serif" font-size="10.00" fill="#000000">[进入后台]</text>
</g>
<!-- A15 -->
<g id="node16" class="node">
<title>A15</title>
<path fill="none" stroke="#000000" d="M146.4186,-552C146.4186,-552 91.1564,-552 91.1564,-552 85.1564,-552 79.1564,-546 79.1564,-540 79.1564,-540 79.1564,-528 79.1564,-528 79.1564,-522 85.1564,-516 91.1564,-516 91.1564,-516 146.4186,-516 146.4186,-516 152.4186,-516 158.4186,-522 158.4186,-528 158.4186,-528 158.4186,-540 158.4186,-540 158.4186,-546 152.4186,-552 146.4186,-552"/>
<text text-anchor="middle" x="118.7875" y="-531" font-family="Helvetica,sans-Serif" font-size="10.00" fill="#000000">F: onPause</text>
</g>
<!-- A14&#45;&gt;A15 -->
<g id="edge18" class="edge">
<title>A14&#45;&gt;A15</title>
<path fill="none" stroke="#000000" d="M87.9223,-588.9551C92.6532,-580.5319 98.3834,-570.3292 103.616,-561.0128"/>
<polygon fill="#000000" stroke="#000000" points="108.6272,-552.0904 107.6537,-563.013 106.1787,-556.4498 103.7302,-560.8093 103.7302,-560.8093 103.7302,-560.8093 106.1787,-556.4498 99.8066,-558.6057 108.6272,-552.0904 108.6272,-552.0904"/>
</g>
<!-- A16 -->
<g id="node17" class="node">
<title>A16</title>
<path fill="none" stroke="#000000" d="M137.484,-479C137.484,-479 62.091,-479 62.091,-479 56.091,-479 50.091,-473 50.091,-467 50.091,-467 50.091,-455 50.091,-455 50.091,-449 56.091,-443 62.091,-443 62.091,-443 137.484,-443 137.484,-443 143.484,-443 149.484,-449 149.484,-455 149.484,-455 149.484,-467 149.484,-467 149.484,-473 143.484,-479 137.484,-479"/>
<text text-anchor="middle" x="99.7875" y="-458" font-family="Helvetica,sans-Serif" font-size="10.00" fill="#000000">A: super.onStop</text>
</g>
<!-- A14&#45;&gt;A16 -->
<g id="edge20" class="edge">
<title>A14&#45;&gt;A16</title>
<path fill="none" stroke="#000000" d="M72.6936,-588.9276C68.2692,-570.3559 63.4784,-540.7421 69.7875,-516 72.2348,-506.4025 76.737,-496.6737 81.5225,-488.1213"/>
<polygon fill="#000000" stroke="#000000" points="86.7426,-479.3648 85.4873,-490.2586 84.1823,-483.6595 81.622,-487.9543 81.622,-487.9543 81.622,-487.9543 84.1823,-483.6595 77.7567,-485.65 86.7426,-479.3648 86.7426,-479.3648"/>
</g>
<!-- A15&#45;&gt;A16 -->
<g id="edge19" class="edge">
<title>A15&#45;&gt;A16</title>
<path fill="none" stroke="#000000" d="M114.0909,-515.9551C111.967,-507.7951 109.4086,-497.9652 107.0462,-488.8887"/>
<polygon fill="#000000" stroke="#000000" points="104.4959,-479.0904 111.3698,-487.6344 105.7554,-483.9292 107.0148,-488.7679 107.0148,-488.7679 107.0148,-488.7679 105.7554,-483.9292 102.6599,-489.9014 104.4959,-479.0904 104.4959,-479.0904"/>
</g>
<!-- A17 -->
<g id="node18" class="node">
<title>A17</title>
<path fill="none" stroke="#000000" d="M152.6394,-406C152.6394,-406 104.9356,-406 104.9356,-406 98.9356,-406 92.9356,-400 92.9356,-394 92.9356,-394 92.9356,-382 92.9356,-382 92.9356,-376 98.9356,-370 104.9356,-370 104.9356,-370 152.6394,-370 152.6394,-370 158.6394,-370 164.6394,-376 164.6394,-382 164.6394,-382 164.6394,-394 164.6394,-394 164.6394,-400 158.6394,-406 152.6394,-406"/>
<text text-anchor="middle" x="128.7875" y="-385" font-family="Helvetica,sans-Serif" font-size="10.00" fill="#000000">F: onStop</text>
</g>
<!-- A16&#45;&gt;A17 -->
<g id="edge21" class="edge">
<title>A16&#45;&gt;A17</title>
<path fill="none" stroke="#000000" d="M106.956,-442.9551C110.2325,-434.7074 114.1868,-424.7536 117.8246,-415.5962"/>
<polygon fill="#000000" stroke="#000000" points="121.6009,-406.0904 122.091,-417.0453 119.7549,-410.7371 117.9089,-415.3839 117.9089,-415.3839 117.9089,-415.3839 119.7549,-410.7371 113.7268,-413.7225 121.6009,-406.0904 121.6009,-406.0904"/>
</g>
<!-- A18 -->
<g id="node19" class="node">
<title>A18</title>
<polygon fill="none" stroke="#000000" points="56.7875,-406 38.7875,-388 56.7875,-370 74.7875,-388 56.7875,-406"/>
</g>
<!-- A16&#45;&gt;A18 -->
<g id="edge22" class="edge">
<title>A16&#45;&gt;A18</title>
<path fill="none" stroke="#000000" d="M89.1583,-442.9551C83.0029,-432.5052 75.2343,-419.3167 68.8505,-408.4791"/>
<polygon fill="#000000" stroke="#000000" points="63.6723,-399.6882 72.6251,-406.0206 66.21,-403.9964 68.7478,-408.3045 68.7478,-408.3045 68.7478,-408.3045 66.21,-403.9964 64.8704,-410.5885 63.6723,-399.6882 63.6723,-399.6882"/>
</g>
<!-- A19 -->
<g id="node20" class="node">
<title>A19</title>
<path fill="none" stroke="#000000" d="M233.6421,-322C233.6421,-322 145.9329,-322 145.9329,-322 139.9329,-322 133.9329,-316 133.9329,-310 133.9329,-310 133.9329,-298 133.9329,-298 133.9329,-292 139.9329,-286 145.9329,-286 145.9329,-286 233.6421,-286 233.6421,-286 239.6421,-286 245.6421,-292 245.6421,-298 245.6421,-298 245.6421,-310 245.6421,-310 245.6421,-316 239.6421,-322 233.6421,-322"/>
<text text-anchor="middle" x="189.7875" y="-301" font-family="Helvetica,sans-Serif" font-size="10.00" fill="#000000">A: super.onRestart</text>
</g>
<!-- A18&#45;&gt;A19 -->
<g id="edge23" class="edge">
<title>A18&#45;&gt;A19</title>
<path fill="none" stroke="#000000" d="M67.7711,-380.5657C72.6528,-377.2905 78.4837,-373.4179 83.7875,-370 106.0103,-355.6789 131.1154,-340.0245 151.3136,-327.5571"/>
<polygon fill="#000000" stroke="#000000" points="159.9329,-322.2463 153.7799,-331.3232 155.6761,-324.8692 151.4193,-327.492 151.4193,-327.492 151.4193,-327.492 155.6761,-324.8692 149.0587,-323.6609 159.9329,-322.2463 159.9329,-322.2463"/>
<text text-anchor="middle" x="142.7385" y="-343" font-family="Helvetica,sans-Serif" font-size="10.00" fill="#000000">[恢复]</text>
</g>
<!-- A20 -->
<g id="node21" class="node">
<title>A20</title>
<path fill="none" stroke="#000000" d="M101.3633,-322C101.3633,-322 12.2117,-322 12.2117,-322 6.2117,-322 .2117,-316 .2117,-310 .2117,-310 .2117,-298 .2117,-298 .2117,-292 6.2117,-286 12.2117,-286 12.2117,-286 101.3633,-286 101.3633,-286 107.3633,-286 113.3633,-292 113.3633,-298 113.3633,-298 113.3633,-310 113.3633,-310 113.3633,-316 107.3633,-322 101.3633,-322"/>
<text text-anchor="middle" x="56.7875" y="-301" font-family="Helvetica,sans-Serif" font-size="10.00" fill="#000000">A: super.onDestory</text>
</g>
<!-- A18&#45;&gt;A20 -->
<g id="edge25" class="edge">
<title>A18&#45;&gt;A20</title>
<path fill="none" stroke="#000000" d="M56.7875,-369.7733C56.7875,-358.8758 56.7875,-344.7946 56.7875,-332.4587"/>
<polygon fill="#000000" stroke="#000000" points="56.7875,-322.1912 61.2876,-332.1911 56.7875,-327.1912 56.7876,-332.1912 56.7876,-332.1912 56.7876,-332.1912 56.7875,-327.1912 52.2876,-332.1912 56.7875,-322.1912 56.7875,-322.1912"/>
<text text-anchor="middle" x="71.514" y="-343" font-family="Helvetica,sans-Serif" font-size="10.00" fill="#000000">[销毁]</text>
</g>
<!-- A19&#45;&gt;A3 -->
<g id="edge24" class="edge">
<title>A19&#45;&gt;A3</title>
<path fill="none" stroke="#000000" d="M190.8032,-322.0178C191.6735,-339.0228 192.7875,-365.2355 192.7875,-388 192.7875,-1036 192.7875,-1036 192.7875,-1036 192.7875,-1057.3497 177.2226,-1073.6989 159.2599,-1085.4581"/>
<polygon fill="#000000" stroke="#000000" points="150.3069,-1090.8639 156.5415,-1081.8427 154.5872,-1088.2794 158.8675,-1085.695 158.8675,-1085.695 158.8675,-1085.695 154.5872,-1088.2794 161.1935,-1089.5472 150.3069,-1090.8639 150.3069,-1090.8639"/>
</g>
<!-- A21 -->
<g id="node22" class="node">
<title>A21</title>
<path fill="none" stroke="#000000" d="M98.1836,-249C98.1836,-249 15.3914,-249 15.3914,-249 9.3914,-249 3.3914,-243 3.3914,-237 3.3914,-237 3.3914,-225 3.3914,-225 3.3914,-219 9.3914,-213 15.3914,-213 15.3914,-213 98.1836,-213 98.1836,-213 104.1836,-213 110.1836,-219 110.1836,-225 110.1836,-225 110.1836,-237 110.1836,-237 110.1836,-243 104.1836,-249 98.1836,-249"/>
<text text-anchor="middle" x="56.7875" y="-228" font-family="Helvetica,sans-Serif" font-size="10.00" fill="#000000">F: onDestoryView</text>
</g>
<!-- A20&#45;&gt;A21 -->
<g id="edge26" class="edge">
<title>A20&#45;&gt;A21</title>
<path fill="none" stroke="#000000" d="M56.7875,-285.9551C56.7875,-277.8828 56.7875,-268.1764 56.7875,-259.1817"/>
<polygon fill="#000000" stroke="#000000" points="56.7875,-249.0904 61.2876,-259.0903 56.7875,-254.0904 56.7876,-259.0904 56.7876,-259.0904 56.7876,-259.0904 56.7875,-254.0904 52.2876,-259.0904 56.7875,-249.0904 56.7875,-249.0904"/>
</g>
<!-- A22 -->
<g id="node23" class="node">
<title>A22</title>
<path fill="none" stroke="#000000" d="M87.5178,-176C87.5178,-176 26.0572,-176 26.0572,-176 20.0572,-176 14.0572,-170 14.0572,-164 14.0572,-164 14.0572,-152 14.0572,-152 14.0572,-146 20.0572,-140 26.0572,-140 26.0572,-140 87.5178,-140 87.5178,-140 93.5178,-140 99.5178,-146 99.5178,-152 99.5178,-152 99.5178,-164 99.5178,-164 99.5178,-170 93.5178,-176 87.5178,-176"/>
<text text-anchor="middle" x="56.7875" y="-155" font-family="Helvetica,sans-Serif" font-size="10.00" fill="#000000">F: onDestory</text>
</g>
<!-- A21&#45;&gt;A22 -->
<g id="edge27" class="edge">
<title>A21&#45;&gt;A22</title>
<path fill="none" stroke="#000000" d="M56.7875,-212.9551C56.7875,-204.8828 56.7875,-195.1764 56.7875,-186.1817"/>
<polygon fill="#000000" stroke="#000000" points="56.7875,-176.0904 61.2876,-186.0903 56.7875,-181.0904 56.7876,-186.0904 56.7876,-186.0904 56.7876,-186.0904 56.7875,-181.0904 52.2876,-186.0904 56.7875,-176.0904 56.7875,-176.0904"/>
</g>
<!-- A23 -->
<g id="node24" class="node">
<title>A23</title>
<path fill="none" stroke="#000000" d="M86.2488,-103C86.2488,-103 27.3262,-103 27.3262,-103 21.3262,-103 15.3262,-97 15.3262,-91 15.3262,-91 15.3262,-79 15.3262,-79 15.3262,-73 21.3262,-67 27.3262,-67 27.3262,-67 86.2488,-67 86.2488,-67 92.2488,-67 98.2488,-73 98.2488,-79 98.2488,-79 98.2488,-91 98.2488,-91 98.2488,-97 92.2488,-103 86.2488,-103"/>
<text text-anchor="middle" x="56.7875" y="-82" font-family="Helvetica,sans-Serif" font-size="10.00" fill="#000000">F: onDetach</text>
</g>
<!-- A22&#45;&gt;A23 -->
<g id="edge28" class="edge">
<title>A22&#45;&gt;A23</title>
<path fill="none" stroke="#000000" d="M56.7875,-139.9551C56.7875,-131.8828 56.7875,-122.1764 56.7875,-113.1817"/>
<polygon fill="#000000" stroke="#000000" points="56.7875,-103.0904 61.2876,-113.0903 56.7875,-108.0904 56.7876,-113.0904 56.7876,-113.0904 56.7876,-113.0904 56.7875,-108.0904 52.2876,-113.0904 56.7875,-103.0904 56.7875,-103.0904"/>
</g>
<!-- A24 -->
<g id="node25" class="node">
<title>A24</title>
<ellipse fill="none" stroke="#000000" cx="56.7875" cy="-15" rx="11" ry="11"/>
<ellipse fill="none" stroke="#000000" cx="56.7875" cy="-15" rx="15" ry="15"/>
</g>
<!-- A23&#45;&gt;A24 -->
<g id="edge29" class="edge">
<title>A23&#45;&gt;A24</title>
<path fill="none" stroke="#000000" d="M56.7875,-66.9733C56.7875,-58.9095 56.7875,-49.2597 56.7875,-40.4761"/>
<polygon fill="#000000" stroke="#000000" points="56.7875,-30.3564 61.2876,-40.3563 56.7875,-35.3564 56.7876,-40.3564 56.7876,-40.3564 56.7876,-40.3564 56.7875,-35.3564 52.2876,-40.3564 56.7875,-30.3564 56.7875,-30.3564"/>
</g>
</g>
</svg>
